# xmcd
#
# Track frame offsets:
# 150
# 14169
# 25694
# 38297
# 52024
# 65175
# 79597
# 93892
# 106510
# 118715
# 131962
# 145694
# 160095
# 173157
# 188214
# 200282
# 212224
# 226867
# 242521
# 257554
# 272576
# 287565
#
# Disc length: 4006 seconds
#
# Revision: 3
# Processed by: cddbd v1.5.2PL0 Copyright (c) Steve Scherf et al.
# Submitted via: Axialis_AX_CDPlayer 2.6
#
DISCID=290fa416
DTITLE=Sweethearts Of The Rodeo - Sweethearts Of The Rodeo and One Time, One N
DTITLE=ight
DYEAR=1900
DGENRE=
TTITLE0=Midnight Girl/Sunset Town
TTITLE1=Hey Doll Baby
TTITLE2=Since I Found You
TTITLE3=Gotta Get Away
TTITLE4=Chains Of Gold
TTITLE5=Chosen Few
TTITLE6=Everywhere I Turn
TTITLE7=I Can't Resist
TTITLE8=Satisfy You
TTITLE9=Blue To The Bone
TTITLE10=We Won't Let That River Come Between Us
TTITLE11=So Sad
TTITLE12=Don't Look Down
TTITLE13=One Time, One Night
TTITLE14=You Never Talk Sweet
TTITLE15=I Feel Fine
TTITLE16=If I Never See Midnight Again
TTITLE17=Gone Aagin
TTITLE18=Until I Stop Dancing
TTITLE19=This Heart
TTITLE20=Hard Headed Man
TTITLE21=Devil And Your Deep Blue Eyes
EXTD=
EXTT0=
EXTT1=
EXTT2=
EXTT3=
EXTT4=
EXTT5=
EXTT6=
EXTT7=
EXTT8=
EXTT9=
EXTT10=
EXTT11=
EXTT12=
EXTT13=
EXTT14=
EXTT15=
EXTT16=
EXTT17=
EXTT18=
EXTT19=
EXTT20=
EXTT21=
PLAYORDER=
